<svg width="489" height="80" fill="none" xmlns="http://www.w3.org/2000/svg"><path d="M294.4 16.97V27h-1.35v-4.56h-5.41V27h-1.36V16.97h1.36v4.47h5.41v-4.47h1.36Zm5.92 6.84c-.58.02-1.07.06-1.47.14-.4.07-.73.16-1 .28a1.4 1.4 0 0 0-.54.41.9.9 0 0 0-.17.53c0 .19.03.35.09.49.06.13.14.24.24.33.11.09.23.15.38.2a2.67 2.67 0 0 0 1.06 0 2.65 2.65 0 0 0 .97-.5c.15-.13.3-.26.44-.41V23.8Zm-4.03-2.9c.4-.38.82-.66 1.27-.85.45-.18.95-.28 1.5-.28.4 0 .75.07 1.06.2a2.17 2.17 0 0 1 1.25 1.4c.11.32.16.69.16 1.08V27h-.55a.57.57 0 0 1-.28-.06c-.06-.04-.12-.12-.15-.23l-.14-.68c-.19.18-.37.33-.55.47a3.02 3.02 0 0 1-1.19.54 3.23 3.23 0 0 1-1.51-.04c-.24-.08-.46-.2-.64-.35a1.7 1.7 0 0 1-.42-.58c-.1-.24-.16-.52-.16-.84 0-.28.08-.55.23-.8.16-.27.4-.5.75-.7.35-.2.8-.36 1.35-.49.56-.13 1.24-.2 2.05-.22v-.56c0-.55-.12-.96-.36-1.24-.24-.29-.59-.43-1.04-.43a2.21 2.21 0 0 0-1.32.38l-.4.26a.56.56 0 0 1-.31.11.37.37 0 0 1-.22-.06.67.67 0 0 1-.16-.17l-.22-.4Zm12.03 5.18v-5.2h-2.25c-.05.73-.11 1.37-.2 1.93-.08.56-.18 1.05-.29 1.48-.1.42-.23.77-.36 1.07-.13.3-.27.53-.42.72h3.52Zm2.5-.04v3c0 .13-.03.22-.1.29a.34.34 0 0 1-.26.1h-.76V27h-5.97v2.09a.4.4 0 0 1-.08.24c-.05.08-.14.11-.26.11h-.78V26.1h.23c.16 0 .32-.03.48-.08.16-.06.32-.17.47-.32.15-.16.29-.38.42-.66.14-.29.26-.66.36-1.12.11-.45.2-1.01.28-1.66.08-.66.15-1.44.2-2.34h4.48v6.14h1.3Zm5.89-3.37c0-.29-.04-.55-.13-.79a1.7 1.7 0 0 0-.92-1.03c-.22-.1-.48-.15-.76-.15-.6 0-1.07.18-1.42.53-.35.34-.56.83-.65 1.44h3.88Zm1 3.33c-.15.18-.33.35-.54.49a3.55 3.55 0 0 1-1.45.53c-.27.04-.53.07-.78.07-.5 0-.94-.08-1.36-.25a3.07 3.07 0 0 1-1.77-1.92 4.82 4.82 0 0 1-.03-3c.16-.43.38-.8.66-1.12.28-.32.63-.56 1.04-.74a3.38 3.38 0 0 1 2.56-.06 2.76 2.76 0 0 1 1.56 1.61c.15.4.23.84.23 1.35 0 .2-.02.32-.06.39-.04.07-.13.1-.24.1h-4.74c.01.45.07.84.18 1.17.11.33.27.6.46.83.2.22.43.38.7.5.27.1.58.16.91.16a2.72 2.72 0 0 0 1.4-.35c.16-.08.3-.16.4-.23.12-.07.21-.1.29-.1.1 0 .18.03.24.11l.35.46Zm11.47.99h-.87c-.23 0-.4-.04-.52-.1a.7.7 0 0 1-.27-.33l-1.38-2.2a1.1 1.1 0 0 0-.99-.55h-.71V27h-1.21v-3.2h-.71c-.21 0-.4.05-.58.14-.16.1-.3.23-.4.41l-1.39 2.2a.71.71 0 0 1-.28.34 1 1 0 0 1-.52.1h-.86l1.87-2.93c.12-.2.25-.37.4-.5.16-.13.35-.22.57-.29a1.3 1.3 0 0 1-.45-.24 2.08 2.08 0 0 1-.34-.43l-1.85-2.7h.98c.12 0 .23.03.33.1.1.06.17.14.23.25l1.5 2.24c.1.15.23.27.38.36.14.08.31.12.5.12h.62V19.9h1.2v3.07h.6c.4 0 .7-.16.9-.48l1.5-2.24a.64.64 0 0 1 .57-.35h.98l-1.85 2.7c-.1.17-.22.32-.35.43-.12.1-.27.19-.45.24a1.58 1.58 0 0 1 .98.79l1.87 2.93Zm7.07-7.1V27h-1.26v-3.32h-3.4V27h-1.25v-7.1h1.25v2.84h3.4V19.9h1.26Zm4.7 6.19c.25 0 .47-.03.65-.1a1.12 1.12 0 0 0 .74-.67c.06-.15.09-.32.09-.5 0-.16-.03-.32-.08-.47a.94.94 0 0 0-.26-.39c-.11-.11-.27-.2-.46-.26-.2-.07-.43-.1-.7-.1h-1.51v2.49h1.53Zm-.02-3.4c.49 0 .9.06 1.23.17.34.12.6.28.8.47.21.2.36.42.45.68a2.42 2.42 0 0 1-.04 1.68c-.11.27-.27.5-.5.7-.21.19-.49.34-.8.45-.33.1-.7.16-1.12.16h-2.72v-7.1h1.19v2.79h1.5Zm5.42-2.78V27h-1.25v-7.1h1.25Zm8.06 0V27h-1.24v-4.82a3.24 3.24 0 0 1 .05-.62 4.51 4.51 0 0 1-.26.48l-3.42 4.65c-.06.08-.12.15-.2.22a.37.37 0 0 1-.25.1h-.76v-7.1h1.25v4.82a3.56 3.56 0 0 1-.04.61 3.95 3.95 0 0 1 .25-.46l3.42-4.66a1 1 0 0 1 .2-.2c.07-.08.16-.11.25-.11h.75Zm-2.96-1.72c.2 0 .36-.02.49-.06a.7.7 0 0 0 .31-.22.9.9 0 0 0 .18-.37c.04-.16.06-.35.06-.57h.73c.08 0 .15.04.2.12a.5.5 0 0 1 .07.26c0 .23-.05.44-.14.63-.1.18-.23.34-.4.48-.18.13-.4.23-.64.3-.25.07-.54.1-.86.1-.31 0-.6-.03-.85-.1a1.95 1.95 0 0 1-.65-.3 1.38 1.38 0 0 1-.54-1.11c0-.1.03-.18.08-.26a.22.22 0 0 1 .2-.12h.73c0 .22.01.41.05.57.04.15.1.28.18.37.08.1.19.17.32.22.13.04.3.06.48.06Zm13.45 2.98a.58.58 0 0 1-.11.12.25.25 0 0 1-.16.04.43.43 0 0 1-.23-.08 3.2 3.2 0 0 0-.77-.39c-.17-.06-.4-.09-.65-.09-.35 0-.66.06-.93.19-.26.12-.49.3-.67.53-.18.23-.31.52-.4.85-.1.33-.14.7-.14 1.11 0 .43.05.81.15 1.15.1.33.23.61.41.84.18.22.4.4.65.52.26.11.55.17.86.17.3 0 .56-.03.75-.1.2-.08.36-.16.48-.25l.33-.24a.4.4 0 0 1 .26-.1c.1 0 .18.03.23.11l.35.46c-.15.19-.32.35-.52.49a3.36 3.36 0 0 1-1.35.54c-.24.04-.5.06-.75.06-.44 0-.86-.08-1.24-.25-.38-.16-.7-.4-.99-.7-.28-.32-.5-.7-.65-1.15a4.65 4.65 0 0 1-.24-1.55c0-.53.07-1.01.21-1.46.15-.45.37-.83.65-1.16.28-.32.63-.58 1.04-.76.42-.18.9-.27 1.43-.27a3.11 3.11 0 0 1 2.33.92l-.33.45Zm6.37 1.51c0-.29-.04-.55-.12-.79a1.67 1.67 0 0 0-.93-1.03c-.22-.1-.47-.15-.76-.15-.6 0-1.07.18-1.42.53-.35.34-.56.83-.64 1.44h3.87Zm1.01 3.33c-.15.18-.34.35-.55.49a3.55 3.55 0 0 1-1.45.53 4.4 4.4 0 0 1-.78.07c-.49 0-.94-.08-1.36-.25a3.07 3.07 0 0 1-1.77-1.92 4.82 4.82 0 0 1-.02-3c.15-.43.37-.8.65-1.12.29-.32.64-.56 1.05-.74a3.39 3.39 0 0 1 2.56-.06 2.75 2.75 0 0 1 1.56 1.61c.15.4.22.84.22 1.35 0 .2-.02.32-.06.39-.04.07-.12.1-.24.1h-4.74c.02.45.08.84.19 1.17.1.33.26.6.46.83.2.22.43.38.7.5a2.72 2.72 0 0 0 2.3-.18l.4-.24c.12-.07.22-.1.3-.1.1 0 .18.03.23.11l.35.46Zm2.9-.72a2 2 0 0 0 .75.65c.27.13.57.2.9.2a1.8 1.8 0 0 0 1.53-.71 3.3 3.3 0 0 0 .53-2.02c0-.46-.04-.86-.12-1.2-.08-.32-.2-.6-.35-.8a1.37 1.37 0 0 0-.57-.47c-.22-.1-.48-.15-.76-.15-.4 0-.76.1-1.07.28-.3.19-.59.45-.84.8v3.42Zm-.06-4.28c.3-.37.64-.67 1.03-.9.4-.21.84-.33 1.35-.33.4 0 .78.08 1.1.24.34.16.62.39.85.7.24.3.42.68.54 1.13a5.84 5.84 0 0 1-.02 3.02 3.5 3.5 0 0 1-.6 1.17 2.85 2.85 0 0 1-2.25 1.06c-.44 0-.81-.07-1.12-.22-.31-.15-.58-.35-.82-.61v3.13h-1.25v-9.5h.74c.18 0 .3.1.33.27l.12.84Zm9.36 5.11c.47 0 .84-.1 1.1-.32.28-.22.41-.52.41-.9 0-.16-.02-.31-.07-.45a.88.88 0 0 0-.26-.36 1.2 1.2 0 0 0-.47-.24c-.19-.06-.42-.08-.7-.08h-1.54v2.36h1.53Zm-1.53-5.37v2.23h1.37c.2 0 .4-.03.57-.09.18-.06.33-.14.45-.24.13-.11.23-.24.3-.38a1.14 1.14 0 0 0 .03-.87.77.77 0 0 0-.24-.33 1.2 1.2 0 0 0-.44-.23c-.18-.06-.4-.1-.67-.1h-1.37Zm1.4-.84c.44 0 .82.04 1.13.13.31.1.57.21.77.37.2.15.35.32.44.53.1.2.14.42.14.66a2 2 0 0 1-.06.48 1.58 1.58 0 0 1-.65.9c-.18.12-.4.22-.67.29.54.1.96.28 1.25.57.3.28.44.65.44 1.1 0 .35-.07.66-.2.91-.14.25-.33.47-.58.64-.23.17-.51.3-.84.38-.32.09-.66.13-1.03.13h-2.73v-7.1h2.6Zm10.44 0V27h-1.25v-4.82a3.24 3.24 0 0 1 .05-.62 4.51 4.51 0 0 1-.26.48l-3.42 4.65c-.05.08-.12.15-.2.22a.37.37 0 0 1-.25.1h-.76v-7.1h1.26v4.82a3.56 3.56 0 0 1-.05.61 3.95 3.95 0 0 1 .25-.46l3.42-4.66a1 1 0 0 1 .2-.2c.08-.08.16-.11.26-.11h.75Zm6.9 1.26a.58.58 0 0 1-.11.12.25.25 0 0 1-.15.04.43.43 0 0 1-.24-.08 3.2 3.2 0 0 0-.76-.39c-.18-.06-.4-.09-.66-.09-.35 0-.66.06-.93.19-.26.12-.49.3-.67.53-.18.23-.31.52-.4.85-.1.33-.14.7-.14 1.11 0 .43.05.81.15 1.15.1.33.23.61.41.84.18.22.4.4.65.52.26.11.55.17.86.17.3 0 .56-.03.75-.1.2-.08.36-.16.49-.25l.32-.24a.4.4 0 0 1 .26-.1c.1 0 .18.03.24.11l.35.46c-.16.19-.33.35-.53.49a3.36 3.36 0 0 1-1.34.54c-.25.04-.5.06-.76.06-.44 0-.86-.08-1.24-.25-.38-.16-.7-.4-.99-.7-.28-.32-.5-.7-.65-1.15a4.65 4.65 0 0 1-.24-1.55c0-.53.07-1.01.21-1.46.15-.45.37-.83.65-1.16.28-.32.63-.58 1.04-.76.42-.18.9-.27 1.43-.27a3.11 3.11 0 0 1 2.33.92l-.33.45ZM289.83 41.8c-.57.02-1.06.06-1.47.14-.4.07-.73.16-.99.28a1.4 1.4 0 0 0-.55.41.9.9 0 0 0-.17.53c0 .19.03.35.1.49.05.13.13.24.24.33.1.09.23.15.37.2a2.68 2.68 0 0 0 1.06 0 2.73 2.73 0 0 0 .97-.5c.16-.13.3-.26.44-.41V41.8Zm-4.02-2.9c.39-.38.8-.66 1.26-.85.45-.18.96-.28 1.5-.28.4 0 .76.07 1.06.2a2.17 2.17 0 0 1 1.26 1.4c.1.32.16.69.16 1.08V45h-.56a.57.57 0 0 1-.28-.06c-.06-.04-.11-.12-.15-.23l-.14-.68c-.19.18-.37.33-.55.47a3.02 3.02 0 0 1-1.19.54 3.23 3.23 0 0 1-1.5-.04 1.7 1.7 0 0 1-1.06-.93 2.1 2.1 0 0 1-.17-.84c0-.28.08-.55.24-.8.15-.27.4-.5.75-.7.34-.2.8-.36 1.35-.49s1.23-.2 2.04-.22v-.56c0-.55-.12-.96-.36-1.24-.24-.29-.58-.43-1.04-.43a2.21 2.21 0 0 0-1.32.38l-.39.26a.56.56 0 0 1-.32.11.37.37 0 0 1-.22-.06.66.66 0 0 1-.15-.17l-.22-.4Zm13.04-1V45h-1.25v-3.32h-3.4V45h-1.25v-7.1h1.25v2.84h3.4V37.9h1.25Zm5.83 3.9c-.58.02-1.07.06-1.47.14-.4.07-.73.16-.99.28a1.4 1.4 0 0 0-.55.41.9.9 0 0 0-.17.53c0 .19.03.35.1.49.05.13.13.24.24.33.1.09.23.15.37.2a2.68 2.68 0 0 0 1.06 0 2.73 2.73 0 0 0 .97-.5c.15-.13.3-.26.44-.41V41.8Zm-4.03-2.9a3.9 3.9 0 0 1 2.77-1.13c.4 0 .75.07 1.06.2a2.17 2.17 0 0 1 1.25 1.4c.11.32.17.69.17 1.08V45h-.56a.57.57 0 0 1-.28-.06c-.06-.04-.11-.12-.15-.23l-.14-.68c-.19.18-.37.33-.55.47a3.02 3.02 0 0 1-1.19.54 3.24 3.24 0 0 1-1.5-.04c-.25-.08-.46-.2-.65-.35a1.68 1.68 0 0 1-.42-.58 2.1 2.1 0 0 1-.16-.84c0-.28.08-.55.23-.8a2 2 0 0 1 .75-.7c.35-.2.8-.36 1.35-.49.56-.13 1.24-.2 2.05-.22v-.56c0-.55-.12-.96-.36-1.24-.24-.29-.58-.43-1.04-.43a2.21 2.21 0 0 0-1.32.38l-.39.26a.56.56 0 0 1-.32.11.37.37 0 0 1-.22-.06.66.66 0 0 1-.15-.17l-.23-.4ZM314.01 45h-1.25v-6.11h-2.24c-.05.9-.14 1.68-.25 2.34-.11.65-.25 1.2-.4 1.67-.16.46-.33.83-.53 1.12-.2.28-.4.5-.6.66a1.8 1.8 0 0 1-.67.33c-.22.05-.44.08-.67.08-.4 0-.6-.06-.6-.19v-.79h.37a1.23 1.23 0 0 0 .96-.4c.16-.16.31-.39.45-.67.15-.29.28-.66.4-1.12.12-.46.22-1.02.3-1.67.1-.66.16-1.44.2-2.34h4.53V45Zm8.06-7.1V45h-1.25v-4.82a3.63 3.63 0 0 1 .05-.62 4.51 4.51 0 0 1-.26.48l-3.42 4.65a1.2 1.2 0 0 1-.2.22.37.37 0 0 1-.25.1h-.76v-7.1h1.26v4.82a3.56 3.56 0 0 1-.05.61 3.95 3.95 0 0 1 .25-.46l3.42-4.66c.05-.07.12-.14.2-.2.08-.08.16-.11.26-.11h.75Zm7.86.96h-2.72V45h-1.25v-6.14h-2.72v-.95h6.69v.95Zm7.27-.95V45h-1.25v-4.82a3.63 3.63 0 0 1 .05-.62 4.51 4.51 0 0 1-.25.48l-3.43 4.65a1.2 1.2 0 0 1-.2.22.37.37 0 0 1-.25.1h-.75v-7.1h1.25v4.82a3.56 3.56 0 0 1-.05.61 3.95 3.95 0 0 1 .25-.46l3.43-4.66c.05-.07.11-.14.2-.2.07-.08.16-.11.25-.11h.75Zm6.28.35c.06-.1.15-.19.25-.25.11-.07.23-.1.35-.1h.97l-1.84 2.7c-.11.17-.23.32-.35.43-.12.1-.27.19-.45.25.23.06.41.16.57.29.15.12.29.29.41.49l1.86 2.93h-.86a1 1 0 0 1-.52-.11.98.98 0 0 1-.32-.32l-1.38-2.2a1.08 1.08 0 0 0-.98-.55h-.77V45h-1.25v-7.1h1.25v3.07h.68a1 1 0 0 0 .87-.48l1.5-2.24Zm9.02-.35V45h-1.25v-4.82a3.24 3.24 0 0 1 .05-.62 4.51 4.51 0 0 1-.26.48l-3.42 4.65c-.05.08-.12.15-.2.22a.37.37 0 0 1-.25.1h-.75v-7.1h1.25v4.82a3.56 3.56 0 0 1-.05.61 3.95 3.95 0 0 1 .25-.46l3.43-4.66a1 1 0 0 1 .2-.2c.07-.08.16-.11.25-.11h.75Zm10.44 6.18v-5.2h-2.25c-.05.73-.11 1.37-.2 1.93-.08.56-.18 1.05-.29 1.48-.1.42-.23.78-.36 1.07-.13.3-.27.53-.42.72h3.52Zm2.5-.04v3c0 .13-.03.22-.1.29a.34.34 0 0 1-.26.1h-.76V45h-5.97v2.09a.4.4 0 0 1-.08.24c-.05.08-.14.11-.26.11h-.78V44.1h.23c.16 0 .32-.03.48-.08.16-.06.32-.16.47-.32.15-.16.29-.38.42-.66.13-.29.25-.66.36-1.12.11-.45.2-1.01.28-1.66.08-.66.14-1.44.2-2.34h4.48v6.15h1.3Zm7.48.95h-1.24v-6.11h-2.24c-.06.9-.14 1.68-.26 2.34-.1.65-.24 1.2-.4 1.67-.16.46-.33.83-.53 1.12-.19.28-.4.5-.6.66a1.8 1.8 0 0 1-.66.33c-.23.05-.45.08-.68.08-.4 0-.6-.06-.6-.19v-.79h.37a1.23 1.23 0 0 0 .96-.4c.16-.16.31-.39.46-.67.14-.29.27-.66.39-1.12.12-.46.22-1.02.3-1.67.1-.66.16-1.44.21-2.34h4.52V45Zm5.7-3.78v-2.47h-1.18c-.27 0-.5.04-.68.12-.18.07-.32.17-.44.3-.1.1-.18.24-.23.4-.04.14-.07.28-.07.42 0 .39.14.69.42.9.28.22.67.33 1.15.33h1.04Zm1.2-3.31V45h-1.2v-2.99h-.54c-.13 0-.24.01-.33.04a.8.8 0 0 0-.22.08.61.61 0 0 0-.16.15c-.05.05-.1.12-.15.2l-1.56 2.09a.81.81 0 0 1-.29.33.95.95 0 0 1-.5.1h-.86l2.05-2.67c.17-.28.4-.47.67-.56a2.93 2.93 0 0 1-.91-.26 2.18 2.18 0 0 1-.61-.42 1.59 1.59 0 0 1-.34-.56 1.84 1.84 0 0 1 .04-1.33c.1-.25.25-.46.46-.65.21-.19.48-.34.81-.46a3.6 3.6 0 0 1 1.22-.18h2.42ZM391.29 45h-1.25v-6.14h-3.4V45h-1.26v-7.1h5.91V45Zm4.97-7.2c.52 0 .98.08 1.4.26a3 3 0 0 1 1.73 1.89c.16.44.24.95.24 1.5a4.5 4.5 0 0 1-.24 1.51 3 3 0 0 1-1.74 1.88 3.7 3.7 0 0 1-1.4.26c-.51 0-.99-.09-1.4-.25a3 3 0 0 1-1.75-1.89 4.63 4.63 0 0 1-.23-1.5c0-.56.08-1.07.23-1.51a3 3 0 0 1 1.74-1.89c.43-.18.9-.26 1.42-.26Zm0 6.33c.7 0 1.22-.24 1.57-.7.34-.48.52-1.13.52-1.97 0-.85-.18-1.5-.52-1.98-.35-.47-.87-.7-1.57-.7-.36 0-.67.06-.93.18s-.48.3-.66.52c-.17.23-.3.52-.4.85-.08.33-.12.7-.12 1.13 0 .84.18 1.5.52 1.96.35.47.88.7 1.59.7Zm9.89-4.96a.58.58 0 0 1-.11.12.25.25 0 0 1-.16.04.43.43 0 0 1-.23-.08 3.2 3.2 0 0 0-.77-.39c-.18-.06-.4-.09-.66-.09-.35 0-.65.06-.92.19-.27.12-.49.3-.67.53-.18.23-.31.52-.4.85-.1.33-.14.7-.14 1.11 0 .43.05.81.15 1.15.1.33.23.61.4.84.2.22.4.4.66.52.26.11.54.17.86.17.3 0 .55-.03.75-.1.2-.08.36-.16.48-.25l.32-.24a.4.4 0 0 1 .26-.1c.1 0 .19.03.24.11l.35.46c-.15.19-.33.35-.52.49a3.36 3.36 0 0 1-1.35.53c-.25.05-.5.07-.75.07-.45 0-.86-.08-1.24-.25-.38-.16-.7-.4-.99-.7-.28-.32-.5-.7-.66-1.15a4.65 4.65 0 0 1-.24-1.55c0-.53.08-1.01.22-1.46.15-.45.37-.84.65-1.16.28-.32.63-.58 1.04-.76.41-.18.89-.27 1.43-.27a3.11 3.11 0 0 1 2.33.92l-.33.45Zm7.64-.3h-2.72V45h-1.25v-6.14h-2.72v-.95h6.7v.95Zm4.97 2.94c-.58.02-1.07.06-1.47.14-.4.07-.74.16-1 .28a1.4 1.4 0 0 0-.54.41.9.9 0 0 0-.17.53c0 .19.03.35.09.49.06.13.14.24.24.33.11.09.23.15.38.2a2.68 2.68 0 0 0 1.06 0 2.73 2.73 0 0 0 .97-.5c.15-.13.3-.26.44-.41V41.8Zm-4.03-2.9a3.9 3.9 0 0 1 2.77-1.13c.4 0 .75.07 1.06.2a2.17 2.17 0 0 1 1.25 1.4c.11.32.16.69.16 1.08V45h-.55a.57.57 0 0 1-.28-.06c-.06-.04-.12-.12-.15-.23l-.14-.68c-.19.18-.37.33-.55.47a3.02 3.02 0 0 1-1.19.54 3.24 3.24 0 0 1-1.51-.04 1.68 1.68 0 0 1-1.06-.93 2.1 2.1 0 0 1-.16-.84c0-.28.08-.55.23-.8a2 2 0 0 1 .75-.7c.35-.2.8-.36 1.35-.49.56-.13 1.24-.2 2.05-.22v-.56c0-.55-.12-.96-.36-1.24-.24-.29-.59-.43-1.04-.43a2.21 2.21 0 0 0-1.32.38l-.4.26a.56.56 0 0 1-.31.11.37.37 0 0 1-.22-.06.66.66 0 0 1-.16-.17l-.22-.4Zm9.87 5.22c.46 0 .83-.11 1.1-.33.27-.22.4-.52.4-.9 0-.16-.02-.31-.07-.45a.9.9 0 0 0-.25-.36 1.2 1.2 0 0 0-.47-.24c-.2-.06-.43-.08-.7-.08h-1.54v2.35h1.53Zm-1.53-5.38v2.23h1.36c.2 0 .4-.03.57-.09a1.15 1.15 0 0 0 .75-.62 1.14 1.14 0 0 0 .04-.87.78.78 0 0 0-.24-.33 1.2 1.2 0 0 0-.44-.23c-.19-.06-.41-.1-.68-.1h-1.36Zm1.4-.84c.44 0 .81.04 1.13.13.3.1.56.21.77.37.2.15.34.32.44.53.09.2.14.42.14.66a2 2 0 0 1-.07.48 1.6 1.6 0 0 1-.65.9c-.18.12-.4.22-.67.29.54.1.96.28 1.25.57.3.28.44.65.44 1.1 0 .35-.06.66-.2.91s-.33.47-.57.64c-.24.17-.52.3-.84.38a4.1 4.1 0 0 1-1.04.13h-2.73v-7.1h2.6Zm15.19 6.15v3c0 .12-.04.21-.1.28a.34.34 0 0 1-.26.1h-.77V45h-9.71v-7.1h1.25v6.16h2.9V37.9h1.24v6.15h2.9V37.9h1.25v6.15h1.3ZM447 37.9V45h-1.25v-4.82a3.24 3.24 0 0 1 .05-.62 4.51 4.51 0 0 1-.26.48l-3.42 4.65c-.05.08-.12.15-.2.22a.37.37 0 0 1-.25.1h-.75v-7.1h1.25v4.82a3.56 3.56 0 0 1-.05.61 3.95 3.95 0 0 1 .25-.46l3.43-4.66a1 1 0 0 1 .2-.2c.07-.08.16-.11.25-.11h.75Zm6.27.35a.8.8 0 0 1 .26-.25c.11-.07.23-.1.35-.1h.97L453 40.6a2.2 2.2 0 0 1-.35.43c-.12.1-.27.19-.45.25.22.06.41.16.57.29.15.12.29.29.41.49l1.86 2.93h-.87a1 1 0 0 1-.51-.11 1 1 0 0 1-.32-.32l-1.38-2.2a1.08 1.08 0 0 0-.99-.55h-.76V45h-1.25v-7.1h1.25v3.07h.67a1 1 0 0 0 .88-.48l1.5-2.24Zm5.66-.46c.52 0 .99.08 1.4.26a3 3 0 0 1 1.74 1.89c.16.44.24.95.24 1.5a4.5 4.5 0 0 1-.24 1.51 3 3 0 0 1-1.74 1.88 3.7 3.7 0 0 1-1.4.26c-.52 0-1-.09-1.41-.25a3 3 0 0 1-1.75-1.89 4.63 4.63 0 0 1-.23-1.5c0-.56.08-1.07.23-1.51a3 3 0 0 1 1.74-1.89c.43-.18.9-.26 1.42-.26Zm0 6.33c.7 0 1.22-.24 1.57-.7.34-.48.52-1.13.52-1.97 0-.85-.18-1.5-.52-1.98-.35-.47-.87-.7-1.57-.7-.35 0-.66.06-.93.18-.26.12-.48.3-.66.52-.17.23-.3.52-.39.85-.08.33-.13.7-.13 1.13 0 .84.18 1.5.52 1.96.35.47.88.7 1.6.7Zm7.68 0c.46 0 .83-.11 1.1-.33.28-.22.41-.52.41-.9 0-.16-.02-.31-.08-.45a.88.88 0 0 0-.25-.36 1.2 1.2 0 0 0-.47-.24c-.19-.06-.43-.08-.7-.08h-1.54v2.35h1.53Zm-1.53-5.38v2.23h1.37c.2 0 .4-.03.56-.09a1.15 1.15 0 0 0 .75-.62 1.14 1.14 0 0 0 .04-.87.77.77 0 0 0-.24-.33 1.2 1.2 0 0 0-.44-.23c-.18-.06-.4-.1-.67-.1h-1.37Zm1.4-.84c.44 0 .82.04 1.13.13.31.1.57.21.77.37.2.15.35.32.44.53.1.2.14.42.14.66a2 2 0 0 1-.06.48c-.04.17-.12.33-.23.48-.1.16-.24.3-.42.42s-.4.22-.68.29c.55.1.96.28 1.26.57.3.28.44.65.44 1.1 0 .35-.07.66-.21.91-.14.25-.33.47-.57.64-.24.17-.52.3-.84.38-.32.09-.67.13-1.03.13h-2.74v-7.1h2.6Zm-174.59 18V63h-1.25v-3.32h-3.4V63h-1.25v-7.1h1.25v2.84h3.4V55.9h1.25Zm5.83 3.9c-.58.02-1.07.06-1.47.14-.4.07-.73.16-.99.28a1.4 1.4 0 0 0-.55.41.9.9 0 0 0-.17.53c0 .19.03.35.1.49.05.13.13.24.24.33.1.09.23.15.37.2a2.68 2.68 0 0 0 1.06 0 2.73 2.73 0 0 0 .97-.5c.15-.13.3-.26.44-.41V59.8Zm-4.03-2.9a3.9 3.9 0 0 1 2.77-1.13c.4 0 .75.07 1.06.2a2.17 2.17 0 0 1 1.26 1.4c.1.32.16.69.16 1.08V63h-.56a.57.57 0 0 1-.28-.06c-.06-.04-.11-.12-.15-.23l-.14-.68c-.19.18-.37.33-.55.47a3.02 3.02 0 0 1-1.19.54 3.24 3.24 0 0 1-1.5-.04 1.68 1.68 0 0 1-1.06-.93 2.1 2.1 0 0 1-.17-.84c0-.28.08-.55.24-.8a2 2 0 0 1 .74-.7c.35-.2.8-.36 1.36-.49.55-.13 1.23-.2 2.04-.22v-.56c0-.55-.12-.96-.36-1.24-.24-.29-.58-.43-1.04-.43a2.21 2.21 0 0 0-1.32.38l-.39.26a.56.56 0 0 1-.32.11.37.37 0 0 1-.22-.06.66.66 0 0 1-.15-.17l-.23-.4Zm18.63-1.02V63h-1.13v-4.71a4.97 4.97 0 0 1 .1-.89l-2.47 4.32a.48.48 0 0 1-.15.17.36.36 0 0 1-.2.06h-.15a.4.4 0 0 1-.21-.06.46.46 0 0 1-.15-.17l-2.5-4.33a9.34 9.34 0 0 1 .08.9V63h-1.12v-7.11h1c.09 0 .17.02.26.06.08.04.15.11.21.22l2.22 3.7c.1.2.2.44.28.67.08-.24.18-.47.28-.68l2.17-3.7a.48.48 0 0 1 .22-.22.63.63 0 0 1 .26-.05h1Zm5.81 3.92c-.57.02-1.06.06-1.47.14-.4.07-.73.16-.99.28a1.4 1.4 0 0 0-.55.41.9.9 0 0 0-.17.53c0 .19.03.35.1.49.05.13.14.24.24.33.1.09.23.15.37.2a2.68 2.68 0 0 0 1.06 0 2.73 2.73 0 0 0 .97-.5c.16-.13.3-.26.44-.41V59.8Zm-4.02-2.9c.39-.38.81-.66 1.26-.85a3.9 3.9 0 0 1 1.5-.28c.4 0 .76.07 1.06.2a2.17 2.17 0 0 1 1.26 1.4c.1.32.16.69.16 1.08V63h-.55a.57.57 0 0 1-.28-.06c-.07-.04-.12-.12-.16-.23l-.14-.68a3.45 3.45 0 0 1-1.1.8 3.24 3.24 0 0 1-2.14.17 1.68 1.68 0 0 1-1.06-.93 2.1 2.1 0 0 1-.16-.84c0-.28.07-.55.23-.8a2 2 0 0 1 .75-.7c.34-.2.8-.36 1.35-.49s1.23-.2 2.04-.22v-.56c0-.55-.12-.96-.36-1.24-.23-.29-.58-.43-1.04-.43a2.21 2.21 0 0 0-1.31.38l-.4.26a.56.56 0 0 1-.32.11.37.37 0 0 1-.22-.06.66.66 0 0 1-.15-.17l-.22-.4Zm8.39 4.38a2 2 0 0 0 .75.65c.27.13.57.2.9.2a1.8 1.8 0 0 0 1.54-.72 3.3 3.3 0 0 0 .53-2.01c0-.46-.05-.86-.13-1.2-.08-.32-.2-.6-.35-.8a1.37 1.37 0 0 0-.57-.47c-.22-.1-.48-.15-.76-.15-.4 0-.76.1-1.07.28-.3.19-.58.45-.84.8v3.42Zm-.06-4.28c.3-.37.64-.67 1.03-.9.4-.21.84-.33 1.35-.33.4 0 .78.08 1.11.24.33.15.61.39.85.7.23.3.41.68.54 1.13a5.84 5.84 0 0 1-.02 3.02c-.15.45-.35.84-.61 1.17a2.85 2.85 0 0 1-2.25 1.06c-.44 0-.8-.07-1.12-.22-.3-.15-.58-.35-.82-.62v3.14h-1.25v-9.5h.75c.17 0 .28.1.32.27l.12.84Zm10.95-.75c.06-.1.15-.19.25-.25.11-.07.23-.1.35-.1h.97l-1.84 2.7c-.11.17-.23.32-.35.43-.12.1-.27.19-.45.25.23.06.42.16.57.29.15.12.29.29.41.49l1.86 2.93h-.86a1 1 0 0 1-.52-.11.98.98 0 0 1-.32-.32l-1.38-2.2a1.08 1.08 0 0 0-.98-.55h-.77V63h-1.25v-7.1h1.25v3.07h.68a1 1 0 0 0 .87-.48l1.5-2.24Zm7.4 2.42c0-.29-.03-.55-.12-.79a1.67 1.67 0 0 0-.92-1.03c-.23-.1-.48-.15-.76-.15-.6 0-1.07.18-1.43.53-.34.34-.56.82-.64 1.44h3.88Zm1.02 3.33c-.16.18-.34.35-.56.49a4.06 4.06 0 0 1-1.45.53 4.4 4.4 0 0 1-.77.07c-.5 0-.94-.08-1.36-.25a3.09 3.09 0 0 1-1.77-1.91 4.82 4.82 0 0 1-.03-3.02c.15-.42.38-.8.66-1.1.28-.33.63-.57 1.04-.75a3.39 3.39 0 0 1 2.56-.06 2.75 2.75 0 0 1 1.56 1.61c.16.4.23.84.23 1.35 0 .2-.02.32-.06.39-.05.07-.13.1-.24.1h-4.74c.01.45.07.84.18 1.17.11.33.27.6.46.83.2.22.43.38.7.5.27.1.58.16.91.16a2.72 2.72 0 0 0 1.4-.34l.4-.24c.11-.07.21-.1.29-.1.1 0 .18.03.24.11l.35.46Zm7.43-5.15h-2.73V63h-1.24v-6.14h-2.73v-.95h6.7v.95Zm7.1 6.14h-1.26v-6.14h-3.4V63h-1.26v-7.1h5.91V63Zm8.19 0h-1.25v-6.11h-2.24c-.06.9-.14 1.68-.25 2.34-.11.65-.25 1.2-.4 1.67-.16.46-.34.83-.53 1.12-.2.28-.4.5-.61.66a1.8 1.8 0 0 1-.66.33c-.22.05-.45.08-.67.08-.4 0-.6-.06-.6-.19v-.79h.37a1.23 1.23 0 0 0 .96-.4c.16-.16.3-.39.45-.67.15-.29.28-.66.4-1.12.12-.46.22-1.02.3-1.67.1-.66.16-1.44.2-2.34h4.53V63Zm6.72-4.32c0-.29-.05-.55-.13-.79a1.7 1.7 0 0 0-.92-1.03c-.23-.1-.48-.15-.77-.15-.6 0-1.07.18-1.42.53-.34.34-.56.82-.64 1.44h3.88Zm1 3.33c-.15.18-.33.35-.55.49a3.55 3.55 0 0 1-1.45.53c-.26.04-.52.07-.77.07-.5 0-.95-.08-1.36-.25a3.07 3.07 0 0 1-1.77-1.91 4.82 4.82 0 0 1-.03-3.02c.15-.42.37-.8.66-1.1.28-.33.63-.57 1.04-.75a3.38 3.38 0 0 1 2.56-.06 2.76 2.76 0 0 1 1.56 1.61c.15.4.23.84.23 1.35 0 .2-.02.32-.07.39-.04.07-.12.1-.23.1h-4.74c.01.45.07.84.18 1.17.11.33.26.6.46.83.2.22.43.38.7.5.27.1.57.16.91.16a2.72 2.72 0 0 0 1.4-.34l.4-.24c.11-.07.2-.1.29-.1.1 0 .18.03.23.11l.36.46Zm7.73-6.1V63h-1.25v-4.82a3.63 3.63 0 0 1 .05-.62 4.51 4.51 0 0 1-.26.48l-3.42 4.65a1.2 1.2 0 0 1-.2.22.37.37 0 0 1-.25.1h-.75v-7.1h1.25v4.82a3.56 3.56 0 0 1-.05.61 3.95 3.95 0 0 1 .25-.46l3.43-4.66c.05-.07.11-.14.2-.2.07-.08.16-.11.25-.11h.75Zm-2.96-1.72c.19 0 .35-.02.48-.06a.7.7 0 0 0 .32-.22c.08-.1.14-.22.18-.37.04-.16.06-.35.06-.57h.72c.1 0 .16.04.2.12a.5.5 0 0 1 .08.26c0 .23-.05.44-.14.63-.1.18-.23.34-.41.48-.17.13-.38.23-.64.3-.25.07-.53.1-.85.1-.32 0-.6-.03-.85-.1a1.95 1.95 0 0 1-.65-.3 1.4 1.4 0 0 1-.4-.48 1.4 1.4 0 0 1-.14-.63c0-.1.02-.18.07-.26a.22.22 0 0 1 .2-.12h.73c0 .22.02.41.06.57.04.15.1.28.17.37.09.1.2.17.33.22.13.04.29.06.48.06Zm9.87 2.98a.56.56 0 0 1-.12.12.25.25 0 0 1-.15.04.43.43 0 0 1-.23-.08 3.2 3.2 0 0 0-.77-.39c-.18-.06-.4-.09-.66-.09-.35 0-.66.06-.92.19-.27.12-.5.3-.68.53a2.5 2.5 0 0 0-.4.85c-.1.33-.13.7-.13 1.11 0 .43.04.81.14 1.15.1.33.24.61.41.84.19.22.4.4.66.52.25.11.54.17.86.17.3 0 .55-.03.75-.1.2-.08.35-.16.48-.25l.32-.24a.4.4 0 0 1 .26-.1c.1 0 .18.03.24.11l.35.46c-.16.19-.33.35-.53.49a3.32 3.32 0 0 1-1.34.53c-.25.05-.5.07-.76.07-.44 0-.85-.08-1.24-.25-.37-.16-.7-.4-.98-.7-.28-.32-.5-.7-.66-1.15a4.65 4.65 0 0 1-.24-1.55c0-.53.07-1.01.22-1.46.15-.45.36-.84.64-1.16.29-.32.63-.58 1.04-.76.42-.18.9-.27 1.43-.27a3.1 3.1 0 0 1 2.33.92l-.32.45Zm4.47 4.92c.25 0 .47-.03.65-.1a1.12 1.12 0 0 0 .74-.67c.06-.15.08-.31.08-.5 0-.16-.02-.32-.07-.47a.94.94 0 0 0-.26-.39c-.12-.11-.27-.2-.46-.26-.2-.07-.43-.1-.7-.1h-1.51v2.49h1.53Zm-.02-3.4c.49 0 .9.06 1.23.17.33.12.6.28.8.47.21.2.36.42.44.68a2.42 2.42 0 0 1-.03 1.68c-.11.27-.28.5-.5.7-.22.19-.49.34-.8.45-.33.1-.7.16-1.12.16h-2.73v-7.1h1.2v2.79h1.5Zm5.42-2.78V63h-1.25v-7.1h1.25Z" fill="#331A2F" fill-opacity=".9"/><path stroke="#331A2F" stroke-opacity=".5" d="M260.5 0v80"/><path d="M85.2 48.25c-.77 0-1.65-.12-2.65-.35l-3.16-.87.86-2.58c1.79.64 3.28.96 4.47.96.63 0 1.16-.15 1.59-.45.42-.3.64-.7.64-1.2 0-.52-.14-.9-.42-1.15a3.7 3.7 0 0 0-1.53-.67l-1.72-.45c-2.38-.62-3.57-2.02-3.57-4.2 0-1.32.5-2.4 1.5-3.26a6.02 6.02 0 0 1 3.98-1.27c.66 0 1.44.11 2.33.35l3.15.86-.86 2.58a12.51 12.51 0 0 0-3.92-.96c-.59 0-1.09.16-1.5.48-.4.3-.6.7-.6 1.18 0 .51.14.9.42 1.15.27.25.78.48 1.53.67l1.68.44c1.28.34 2.2.86 2.74 1.57.56.68.83 1.56.83 2.64 0 1.3-.49 2.38-1.46 3.25-.98.85-2.42 1.28-4.34 1.28Zm13.62 0c-1.6 0-2.72-.4-3.38-1.18-.63-.79-.95-1.99-.95-3.6v-7.62h-2.36v-2.8h2.36v-3.73l4.05-.8v4.52h3.5v2.8h-3.5v7.69c0 1.25.5 1.88 1.53 1.88.61 0 1.27-.2 1.97-.57l.64 2.39a7.53 7.53 0 0 1-3.86 1.02Zm9.93 0a4.46 4.46 0 0 1-4.72-4.53c0-.91.3-1.65.9-2.2a6.45 6.45 0 0 1 2.86-1.34l5.13-1.27v-1.3c0-.62-.2-1.11-.57-1.47a2.07 2.07 0 0 0-1.53-.55c-.75 0-2.42.57-5.04 1.7l-1.11-2.59 3.63-1.34c1.1-.4 1.91-.6 2.42-.6 1.94 0 3.45.5 4.56 1.53a5.03 5.03 0 0 1 1.69 3.95v5.48c0 .4.06 1.01.19 1.82.15.78.34 1.45.57 2l-3.47.7c-.43-.46-.87-1.11-1.34-1.94-1.42 1.3-2.81 1.95-4.17 1.95Zm1.43-2.84c.83 0 1.74-.48 2.74-1.43v-3.22l-3.19.92c-1.02.3-1.53.86-1.53 1.69 0 .64.18 1.14.55 1.5.36.36.83.54 1.43.54Zm15.2 2.84c-1.59 0-2.71-.4-3.37-1.18-.64-.79-.96-1.99-.96-3.6v-7.62h-2.36v-2.8h2.36v-3.73l4.05-.8v4.52h3.5v2.8h-3.5v7.69c0 1.25.5 1.88 1.53 1.88.61 0 1.27-.2 1.97-.57l.64 2.39a7.53 7.53 0 0 1-3.86 1.02Zm45.01-.3h-4.04v-8.7c0-1.27-.2-2.19-.58-2.76-.36-.6-.94-.9-1.75-.9-.8 0-1.68.48-2.61 1.44v10.93h-4.05v-8.7c0-1.28-.18-2.2-.54-2.77-.36-.6-.96-.9-1.79-.9-.78 0-1.65.48-2.6 1.44v10.93h-4.06V37.28c0-.4-.07-1-.22-1.78-.13-.8-.3-1.49-.54-2.04l3.44-.7c.45.44.9 1.1 1.37 1.94 1.34-1.3 2.73-1.94 4.18-1.94 2.14 0 3.6.75 4.36 2.26a5.76 5.76 0 0 1 2-1.6 5.69 5.69 0 0 1 2.62-.66c1.62 0 2.82.47 3.6 1.4.81.94 1.21 2.39 1.21 4.37v9.43Zm7.35.3a4.46 4.46 0 0 1-4.72-4.53c0-.91.3-1.65.9-2.2a6.45 6.45 0 0 1 2.87-1.34l5.13-1.27v-1.3c0-.62-.2-1.11-.58-1.47a2.07 2.07 0 0 0-1.53-.55c-.74 0-2.42.57-5.03 1.7l-1.12-2.59 3.64-1.34a8.1 8.1 0 0 1 2.42-.6c1.93 0 3.45.5 4.56 1.53a5.03 5.03 0 0 1 1.68 3.95v5.48c0 .4.07 1.01.2 1.82.14.78.34 1.45.57 2l-3.47.7c-.43-.46-.88-1.11-1.34-1.94-1.43 1.3-2.82 1.95-4.18 1.95Zm1.44-2.84c.82 0 1.74-.48 2.74-1.43v-3.22l-3.19.92c-1.02.3-1.53.86-1.53 1.69 0 .64.18 1.14.54 1.5.36.36.84.54 1.44.54Zm14.46 2.55h-4.05V37.28c0-.4-.07-1-.22-1.78-.13-.8-.3-1.49-.54-2.04l3.44-.7a5.36 5.36 0 0 1 1.37 2.68 5 5 0 0 1 1.69-1.98 4.2 4.2 0 0 1 2.33-.7c.46 0 .89.07 1.27.22l-.7 3.47h-1.05c-1 0-1.79.25-2.36.74-.55.47-.94 1.25-1.18 2.36v8.4Zm21.05 0h-4.98l-4.94-7.71v7.7h-4.04V26.68l4.05-.8v13.26l5.03-6.09h4.56l-6 6.67 6.32 8.25Zm7.25.29c-2.4 0-4.22-.72-5.45-2.14-1.21-1.44-1.82-3.33-1.82-5.67s.63-4.2 1.88-5.58c1.26-1.4 3-2.1 5.23-2.1 4.31 0 6.47 2.24 6.47 6.72 0 .47-.05.86-.16 1.18h-9.24c0 1.6.28 2.78.86 3.57a2.9 2.9 0 0 0 2.45 1.18c1.17 0 2.7-.43 4.6-1.28l1.1 2.59-3.37 1.24c-.58.19-1.42.29-2.55.29Zm-.38-12.66c-.85 0-1.52.3-2.01.9a3.5 3.5 0 0 0-.7 2.23h5.2c0-2.08-.84-3.13-2.5-3.13Zm14.63 12.66c-1.6 0-2.72-.4-3.38-1.18-.64-.79-.96-1.99-.96-3.6v-7.62h-2.36v-2.8h2.36v-3.73l4.05-.8v4.52h3.5v2.8h-3.5v7.69c0 1.25.5 1.88 1.53 1.88.61 0 1.27-.2 1.97-.57l.64 2.39a7.53 7.53 0 0 1-3.85 1.02Z" fill="#54618E"/><path d="M143.75 47.96h-3.85v-4.9h-8.7l-.86-2.5 9.08-13h4.33v12.5h2.04v3h-2.04v4.9Zm-3.85-7.9v-8.29l-5.64 8.29h5.64Z" fill="#D653D2"/><mask id="b" style="mask-type:alpha" maskUnits="userSpaceOnUse" x="0" y="11" width="60" height="58"><ellipse cx="30" cy="40" rx="30" ry="29" fill="url(#a)"/></mask><g mask="url(#b)"><ellipse cx="30" cy="40" rx="30" ry="29" fill="url(#c)"/><path d="M39.54 48.05V15.8c0-.49.01-1.02.04-1.6l.18-1.79-27.54 35.63h27.32Zm25.5 0v2.26c0 .32-.11.58-.32.78-.18.18-.48.26-.9.26h-20.5v17.67h-3.78V51.35H9.44c-.46 0-.8-.08-1.04-.26-.24-.2-.4-.46-.5-.78l-.4-2.04 32-40.9h3.82v40.68h21.71Z" fill="#fff"/></g><defs><linearGradient id="a" x1="69" y1="-6.4" x2="19.65" y2="70.54" gradientUnits="userSpaceOnUse"><stop stop-color="#F0A"/><stop offset="1" stop-color="#8912DE"/></linearGradient><linearGradient id="c" x1="69" y1="-6.4" x2="19.65" y2="70.54" gradientUnits="userSpaceOnUse"><stop stop-color="#F0A"/><stop offset="1" stop-color="#8912DE"/></linearGradient></defs></svg>