<svg width="46" height="41" viewBox="0 0 46 41" fill="none" xmlns="http://www.w3.org/2000/svg">
<path d="M33.7812 0C31.2851 0 28.9966 0.790984 26.9794 2.35103C25.0456 3.84666 23.758 5.75162 23 7.13683C22.242 5.75153 20.9544 3.84666 19.0206 2.35103C17.0034 0.790984 14.7149 0 12.2188 0C5.25298 0 0 5.69762 0 13.2532C0 21.4159 6.55347 27.0007 16.4746 35.4552C18.1593 36.891 20.0689 38.5184 22.0538 40.2541C22.3154 40.4832 22.6514 40.6094 23 40.6094C23.3486 40.6094 23.6846 40.4832 23.9462 40.2542C25.9312 38.5183 27.8408 36.8909 29.5265 35.4543C39.4465 27.0007 46 21.4159 46 13.2532C46 5.69762 40.747 0 33.7812 0Z" fill="#F70934"/>
</svg>
